<svg xmlns="http://www.w3.org/2000/svg" width="212" height="40.917" viewBox="0 0 212 40.9166679"><path fill="#262626" d="M21.879 40h20.08l20.08-39h-20.08zM62.039 40h20.08l20.08-39h-20.08zM104.01 4.338l-10.04 19.61L102.198 40h20.08zM20.062 36.855l10.04-19.712L21.874.987H1.794zM60.227 36.855l10.04-19.712L63.85 4.544 53.81 24.256z"/><g fill="#262626"><path d="M178.945 17.897l4.227 6.33h-3.35l-2.766-4.46-1.13 1.052v3.408h-2.708v-13.87h2.708v7.422l3.545-3.603h3.253l-3.779 3.72zM136.45 10.358l3.116 9.739 3.156-9.74h3.156l-4.617 13.87h-3.447l-4.54-13.87h3.175zM151.82 24.227c-.137-.37-.156-.526-.195-.973-.857.856-2.045 1.265-3.253 1.265-2.22 0-3.585-1.148-3.585-3.039 0-2.63 2.397-2.94 4.384-3.195 1.792-.233 2.454-.388 2.454-1.206 0-.916-.584-1.346-1.812-1.346-1.266 0-1.791.39-1.987 1.54h-2.59c.156-2.24 1.753-3.39 4.656-3.39 2.025 0 4.382.467 4.382 3.273v4.345c0 .915-.019 1.87.351 2.726h-2.805zm-2.162-4.363c-.955.155-2.027.272-2.027 1.5 0 .838.566 1.344 1.52 1.344 1.442 0 2.455-.798 2.455-2.24v-1.13c-.643.37-1.247.408-1.948.526zM163.371 24.227v-1.286c-.662 1.032-1.656 1.56-3.04 1.56-2.784 0-4.557-2.085-4.557-5.338 0-3.176 1.734-5.26 4.402-5.26 1.189 0 2.416.487 3.059 1.52v-5.065h2.746v13.87h-2.61zm-2.435-8.143c-1.5 0-2.377 1.15-2.377 3.079 0 1.947.897 3.116 2.377 3.116 1.52 0 2.396-1.129 2.396-3.097 0-1.948-.896-3.098-2.396-3.098zM170.936 12.694h-2.766v-2.336h2.766v2.336zm0 11.533h-2.766V14.176h2.766v10.051zM133.972 26.151h4.344l3.234 9.525 3.156-9.525h4.246v13.87h-2.863v-9.857l-3.41 9.857h-2.356l-3.448-9.76v9.76h-2.903V26.15zM157.904 40.02c-.137-.369-.156-.526-.195-.973-.857.856-2.045 1.266-3.253 1.266-2.22 0-3.585-1.149-3.585-3.04 0-2.63 2.396-2.94 4.384-3.194 1.792-.233 2.454-.389 2.454-1.207 0-.916-.584-1.345-1.812-1.345-1.265 0-1.791.39-1.986 1.54h-2.591c.156-2.241 1.753-3.39 4.656-3.39 2.025 0 4.382.466 4.382 3.273v4.344c0 .915-.019 1.87.35 2.727h-2.804zm-2.162-4.363c-.955.156-2.026.273-2.026 1.5 0 .838.565 1.344 1.519 1.344 1.442 0 2.455-.798 2.455-2.24v-1.13c-.643.37-1.247.409-1.948.526zM166.033 36.572c0 .974.02 1.423 1.208 1.423.292 0 .507 0 .837-.04v2.105c-.76.058-1.051.078-1.675.078-2.376 0-3.116-.623-3.116-3.079v-5.22h-1.676v-1.87h1.676v-3.04h2.746v9.643zM178.032 29.969l-3.408 10.052h-3.098l-3.448-10.052H171l2.143 6.857 2.143-6.857h2.746zM183.901 40.313c-3.097 0-5.142-2.104-5.142-5.26 0-3.117 2.123-5.376 5.045-5.376 3.039 0 4.968 2.22 4.968 5.747v.273h-7.208c.039 1.734.876 2.668 2.357 2.668 1.013 0 1.636-.448 2.045-1.461h2.65c-.624 2.182-2.435 3.408-4.715 3.408zm-.097-8.63c-1.227 0-2.084.857-2.24 2.26h4.402c-.117-1.227-.78-2.26-2.162-2.26zM195.089 40.313c-3.097 0-5.143-2.104-5.143-5.26 0-3.117 2.123-5.376 5.045-5.376 3.04 0 4.968 2.22 4.968 5.747v.273h-7.208c.04 1.734.877 2.668 2.357 2.668 1.013 0 1.637-.448 2.046-1.461h2.649c-.624 2.182-2.435 3.408-4.714 3.408zm-.098-8.63c-1.227 0-2.084.857-2.24 2.26h4.403c-.118-1.227-.78-2.26-2.163-2.26zM210.543 29.969l-3.41 10.052h-3.097l-3.447-10.052h2.921l2.143 6.857 2.143-6.857h2.747z"/></g></svg>