<?xml version="1.0" encoding="utf-8"?>
<!-- Generator: Adobe Illustrator 17.0.0, SVG Export Plug-In . SVG Version: 6.00 Build 0)  -->
<!DOCTYPE svg PUBLIC "-//W3C//DTD SVG 1.1//EN" "http://www.w3.org/Graphics/SVG/1.1/DTD/svg11.dtd">
<svg version="1.1" id="Слой_1" xmlns="http://www.w3.org/2000/svg" xmlns:xlink="http://www.w3.org/1999/xlink" x="0px" y="0px"
	 width="212px" height="40.9166679px" viewBox="0 0 212 40.9166679" enable-background="new 0 0 212 40.9166679"
	 xml:space="preserve">
<g>
	<polygon fill="#262626" points="21.8790302,40 41.9587288,40 62.0385284,1 41.9587288,1 	"/>
	<polygon fill="#262626" points="62.0385284,40 82.1183319,40 102.1983261,1 82.1183319,1 	"/>
	<g>
		<polygon fill="#262626" points="104.0096283,4.3382306 93.9697266,23.9472656 102.1983261,40 122.2782288,40 		"/>
	</g>
	<g>
		<polygon fill="#262626" points="20.06213,36.85466 30.1019306,17.1427612 21.8736305,0.987061 1.7936296,0.987061 		"/>
	</g>
	<polygon fill="#262626" points="60.2272301,36.85466 70.2670288,17.1428604 63.850029,4.543961 53.8102303,24.2555618 	"/>
</g>
<g>
	<path fill="#262626" d="M178.9450226,17.8967991l4.2272034,6.3306007h-3.3507996l-2.7657013-4.4603996l-1.1299896,1.0515995
		v3.4088001h-2.7077026V10.3577995h2.7077026v7.4215012l3.5449982-3.6035004h3.2532959L178.9450226,17.8967991z"/>
	<path fill="#262626" d="M136.4494324,10.3577995l3.1166992,9.7391014l3.155899-9.7391014h3.1557007l-4.6165009,13.8696003
		h-3.4477081l-4.5395966-13.8696003H136.4494324z"/>
	<path fill="#262626" d="M151.8197327,24.2273998c-0.1363983-0.3698006-0.1555023-0.5268002-0.1943054-0.9738998
		c-0.8572998,0.8565006-2.0453033,1.2658005-3.2532043,1.2658005c-2.2205963,0-3.5848999-1.1485996-3.5848999-3.0391006
		c0-2.6299992,2.3967133-2.941,4.383606-3.1947002c1.7922974-0.2332001,2.4544983-0.3887005,2.4544983-1.2069988
		c0-0.9153004-0.5845947-1.3451004-1.8121033-1.3451004c-1.2658997,0-1.7917938,0.3901005-1.9868927,1.539999h-2.5908966
		c0.156189-2.2412996,1.7536011-3.3894997,4.656189-3.3894997c2.0256042,0,4.3827057,0.4663,4.3827057,3.2721004v4.3449001
		c0,0.9148998-0.019104,1.8698006,0.3506012,2.7264996H151.8197327z M149.6579285,19.8637009
		c-0.9550018,0.1552982-2.0265045,0.2727985-2.0265045,1.5005989c0,0.8374996,0.5656128,1.343401,1.5196075,1.343401
		c1.441803,0,2.4546967-0.7978001,2.4546967-2.2398014v-1.1308002
		C150.9632263,19.7082005,150.3587341,19.7464008,149.6579285,19.8637009z"/>
	<path fill="#262626" d="M163.3710327,24.2273998v-1.286499c-0.6623077,1.0325985-1.6558075,1.5591984-3.0391083,1.5591984
		c-2.785202,0-4.5578918-2.0842991-4.5578918-5.3373985c0-3.175601,1.7337952-5.2598009,4.4023895-5.2598009
		c1.1881104,0,2.4152069,0.4870005,3.0583038,1.5195007v-5.0646009h2.7465057v13.8696003H163.3710327z M160.9362335,16.0839005
		c-1.5003967,0-2.3769073,1.1497993-2.3769073,3.0788002c0,1.9476986,0.8963013,3.1166,2.3769073,3.1166
		c1.5196991,0,2.3959961-1.1292,2.3959961-3.0976009C163.3322296,17.2336998,162.4361267,16.0839005,160.9362335,16.0839005z"/>
	<path fill="#262626" d="M170.9356232,12.6941004h-2.7655945v-2.3363008h2.7655945V12.6941004z M170.9356232,24.2273998h-2.7655945
		V14.1758003h2.7655945V24.2273998z"/>
	<path fill="#262626" d="M133.972229,26.1511002h4.3437958l3.2342072,9.5251007l3.1557922-9.5251007h4.2460022v13.8694992h-2.862793
		v-9.8564987l-3.4096069,9.8564987h-2.3569946l-3.4476013-9.7596989v9.7596989h-2.9028015V26.1511002z"/>
	<path fill="#262626" d="M157.9037323,40.0205994c-0.1363983-0.3695984-0.1553955-0.5263977-0.194397-0.9738007
		c-0.8572083,0.8563995-2.0453033,1.2657013-3.2531128,1.2657013c-2.2206879,0-3.5847931-1.1484985-3.5847931-3.0391006
		c0-2.6300011,2.3959961-2.9407997,4.3833008-3.1945c1.7924957-0.2332001,2.4546051-0.3885994,2.4546051-1.2070999
		c0-0.9153996-0.5843048-1.3451004-1.8121033-1.3451004c-1.2657013,0-1.7915039,0.3901005-1.9866028,1.5401993h-2.5910034
		c0.1562042-2.2411976,1.7534027-3.3897991,4.6562042-3.3897991c2.0254059,0,4.3824921,0.4664001,4.3824921,3.2724018v4.3444977
		c0,0.9152031-0.0189972,1.8700027,0.3506012,2.7266006H157.9037323z M155.7417297,35.6571007
		c-0.954895,0.1554985-2.0261993,0.2728004-2.0261993,1.5004005c0,0.8375969,0.5653992,1.3435974,1.5193939,1.3435974
		c1.4420013,0,2.4546051-0.7978973,2.4546051-2.2395973v-1.1310997
		C157.047226,35.5017014,156.4429321,35.5396996,155.7417297,35.6571007z"/>
	<path fill="#262626" d="M166.0330353,36.5723c0,0.9738007,0.0197906,1.4227982,1.2077942,1.4227982
		c0.2917938,0,0.5066986,0,0.8374939-0.0396996v2.1049004c-0.7597961,0.0572014-1.05159,0.0776024-1.6749878,0.0776024
		c-2.3768005,0-3.116806-0.6231003-3.116806-3.078701v-5.2201004h-1.6757965v-1.8701h1.6757965v-3.0391006h2.7465057V36.5723z"/>
	<path fill="#262626" d="M178.0324249,29.9689999l-3.4087982,10.0515995h-3.097702l-3.4476013-10.0515995h2.9217987
		l2.1429138,6.8571987l2.1427917-6.8571987H178.0324249z"/>
	<path fill="#262626" d="M183.9012299,40.3125c-3.0970001,0-5.1423035-2.1032982-5.1423035-5.2598
		c0-3.1168003,2.1230011-5.3756008,5.0449066-5.3756008c3.039093,0,4.9678955,2.2207012,4.9678955,5.7468014v0.2728996h-7.2077026
		c0.0390015,1.7336998,0.876297,2.6679993,2.3570099,2.6679993c1.0127869,0,1.6362915-0.4473,2.0453949-1.4610977h2.6490021
		C187.9920349,39.0864983,186.1807251,40.3125,183.9012299,40.3125z M183.803833,31.6837997
		c-1.2270966,0-2.0843048,0.8563995-2.2398071,2.2587013h4.4024048
		C185.8491364,32.716301,185.1868286,31.6837997,183.803833,31.6837997z"/>
	<path fill="#262626" d="M195.0885315,40.3125c-3.0970001,0-5.142395-2.1032982-5.142395-5.2598
		c0-3.1168003,2.1230927-5.3756008,5.0448914-5.3756008c3.0391998,0,4.9678955,2.2207012,4.9678955,5.7468014v0.2728996h-7.207489
		c0.0387878,1.7336998,0.8763885,2.6679993,2.3568878,2.6679993c1.0129089,0,1.6362-0.4473,2.0455017-1.4610977h2.6489105
		C199.1793365,39.0864983,197.3680267,40.3125,195.0885315,40.3125z M194.9910278,31.6837997
		c-1.2268982,0-2.084198,0.8563995-2.2395935,2.2587013h4.4023895
		C197.0364227,32.716301,196.3740234,31.6837997,194.9910278,31.6837997z"/>
	<path fill="#262626" d="M210.5428314,29.9689999l-3.408905,10.0515995h-3.0977936l-3.4472961-10.0515995h2.9214935
		l2.1428986,6.8571987l2.1430969-6.8571987H210.5428314z"/>
</g>
</svg>
